<svg width="150" height="58" viewBox="0 0 150 58" fill="none" xmlns="http://www.w3.org/2000/svg">
<rect y="0.514709" width="148.246" height="55" rx="27.5" fill="url(#paint0_linear_162_1131)" fill-opacity="0.3"/>
<g filter="url(#filter0_b_162_1131)">
<rect y="0.514709" width="150" height="55" rx="27.5" fill="#130F27" fill-opacity="0.2"/>
<rect x="0.5" y="1.01471" width="149" height="54" rx="27" stroke="url(#paint1_linear_162_1131)"/>
</g>
<path d="M62.774 27.718C62.774 26.494 63.05 25.396 63.602 24.424C64.154 23.44 64.904 22.672 65.852 22.12C66.812 21.568 67.874 21.292 69.038 21.292C70.406 21.292 71.6 21.622 72.62 22.282C73.64 22.942 74.384 23.878 74.852 25.09H72.89C72.542 24.334 72.038 23.752 71.378 23.344C70.73 22.936 69.95 22.732 69.038 22.732C68.162 22.732 67.376 22.936 66.68 23.344C65.984 23.752 65.438 24.334 65.042 25.09C64.646 25.834 64.448 26.71 64.448 27.718C64.448 28.714 64.646 29.59 65.042 30.346C65.438 31.09 65.984 31.666 66.68 32.074C67.376 32.482 68.162 32.686 69.038 32.686C69.95 32.686 70.73 32.488 71.378 32.092C72.038 31.684 72.542 31.102 72.89 30.346H74.852C74.384 31.546 73.64 32.476 72.62 33.136C71.6 33.784 70.406 34.108 69.038 34.108C67.874 34.108 66.812 33.838 65.852 33.298C64.904 32.746 64.154 31.984 63.602 31.012C63.05 30.04 62.774 28.942 62.774 27.718ZM78.9283 25.738C79.2163 25.174 79.6243 24.736 80.1523 24.424C80.6923 24.112 81.3463 23.956 82.1143 23.956V25.648H81.6823C79.8463 25.648 78.9283 26.644 78.9283 28.636V34H77.2903V24.136H78.9283V25.738ZM93.0051 28.69C93.0051 29.002 92.9871 29.332 92.9511 29.68H85.0671C85.1271 30.652 85.4571 31.414 86.0571 31.966C86.6691 32.506 87.4071 32.776 88.2711 32.776C88.9791 32.776 89.5671 32.614 90.0351 32.29C90.5151 31.954 90.8511 31.51 91.0431 30.958H92.8071C92.5431 31.906 92.0151 32.68 91.2231 33.28C90.4311 33.868 89.4471 34.162 88.2711 34.162C87.3351 34.162 86.4951 33.952 85.7511 33.532C85.0191 33.112 84.4431 32.518 84.0231 31.75C83.6031 30.97 83.3931 30.07 83.3931 29.05C83.3931 28.03 83.5971 27.136 84.0051 26.368C84.4131 25.6 84.9831 25.012 85.7151 24.604C86.4591 24.184 87.3111 23.974 88.2711 23.974C89.2071 23.974 90.0351 24.178 90.7551 24.586C91.4751 24.994 92.0271 25.558 92.4111 26.278C92.8071 26.986 93.0051 27.79 93.0051 28.69ZM91.3131 28.348C91.3131 27.724 91.1751 27.19 90.8991 26.746C90.6231 26.29 90.2451 25.948 89.7651 25.72C89.2971 25.48 88.7751 25.36 88.1991 25.36C87.3711 25.36 86.6631 25.624 86.0751 26.152C85.4991 26.68 85.1691 27.412 85.0851 28.348H91.3131ZM94.5553 29.032C94.5553 28.024 94.7593 27.142 95.1673 26.386C95.5753 25.618 96.1333 25.024 96.8413 24.604C97.5613 24.184 98.3593 23.974 99.2353 23.974C100.099 23.974 100.849 24.16 101.485 24.532C102.121 24.904 102.595 25.372 102.907 25.936V24.136H104.563V34H102.907V32.164C102.583 32.74 102.097 33.22 101.449 33.604C100.813 33.976 100.069 34.162 99.2173 34.162C98.3413 34.162 97.5493 33.946 96.8413 33.514C96.1333 33.082 95.5753 32.476 95.1673 31.696C94.7593 30.916 94.5553 30.028 94.5553 29.032ZM102.907 29.05C102.907 28.306 102.757 27.658 102.457 27.106C102.157 26.554 101.749 26.134 101.233 25.846C100.729 25.546 100.171 25.396 99.5593 25.396C98.9473 25.396 98.3893 25.54 97.8853 25.828C97.3813 26.116 96.9793 26.536 96.6793 27.088C96.3793 27.64 96.2293 28.288 96.2293 29.032C96.2293 29.788 96.3793 30.448 96.6793 31.012C96.9793 31.564 97.3813 31.99 97.8853 32.29C98.3893 32.578 98.9473 32.722 99.5593 32.722C100.171 32.722 100.729 32.578 101.233 32.29C101.749 31.99 102.157 31.564 102.457 31.012C102.757 30.448 102.907 29.794 102.907 29.05ZM109.329 25.486V31.3C109.329 31.78 109.431 32.122 109.635 32.326C109.839 32.518 110.193 32.614 110.697 32.614H111.903V34H110.427C109.515 34 108.831 33.79 108.375 33.37C107.919 32.95 107.691 32.26 107.691 31.3V25.486H106.413V24.136H107.691V21.652H109.329V24.136H111.903V25.486H109.329ZM122.888 28.69C122.888 29.002 122.87 29.332 122.834 29.68H114.95C115.01 30.652 115.34 31.414 115.94 31.966C116.552 32.506 117.29 32.776 118.154 32.776C118.862 32.776 119.45 32.614 119.918 32.29C120.398 31.954 120.734 31.51 120.926 30.958H122.69C122.426 31.906 121.898 32.68 121.106 33.28C120.314 33.868 119.33 34.162 118.154 34.162C117.218 34.162 116.378 33.952 115.634 33.532C114.902 33.112 114.326 32.518 113.906 31.75C113.486 30.97 113.276 30.07 113.276 29.05C113.276 28.03 113.48 27.136 113.888 26.368C114.296 25.6 114.866 25.012 115.598 24.604C116.342 24.184 117.194 23.974 118.154 23.974C119.09 23.974 119.918 24.178 120.638 24.586C121.358 24.994 121.91 25.558 122.294 26.278C122.69 26.986 122.888 27.79 122.888 28.69ZM121.196 28.348C121.196 27.724 121.058 27.19 120.782 26.746C120.506 26.29 120.128 25.948 119.648 25.72C119.18 25.48 118.658 25.36 118.082 25.36C117.254 25.36 116.546 25.624 115.958 26.152C115.382 26.68 115.052 27.412 114.968 28.348H121.196Z" fill="white"/>
<g filter="url(#filter1_d_162_1131)">
<circle cx="27.5" cy="28.0147" r="21.5" fill="#A7FC5A"/>
<circle cx="27.5" cy="28.0147" r="21" stroke="url(#paint2_linear_162_1131)" stroke-opacity="0.5"/>
</g>
<path d="M35.5222 26.7729H28.7342V19.943C28.7342 19.6137 28.6042 19.2978 28.3727 19.0649C28.1413 18.8321 27.8274 18.7012 27.5 18.7012C27.1727 18.7012 26.8588 18.8321 26.6273 19.0649C26.3959 19.2978 26.2658 19.6137 26.2658 19.943V26.7729H19.4778C19.1505 26.7729 18.8366 26.9037 18.6051 27.1366C18.3737 27.3695 18.2437 27.6853 18.2437 28.0147C18.2437 28.344 18.3737 28.6599 18.6051 28.8928C18.8366 29.1257 19.1505 29.2565 19.4778 29.2565H26.2658V36.0864C26.2658 36.4157 26.3959 36.7316 26.6273 36.9644C26.8588 37.1973 27.1727 37.3282 27.5 37.3282C27.8274 37.3282 28.1413 37.1973 28.3727 36.9644C28.6042 36.7316 28.7342 36.4157 28.7342 36.0864V29.2565H35.5222C35.8496 29.2565 36.1635 29.1257 36.3949 28.8928C36.6264 28.6599 36.7564 28.344 36.7564 28.0147C36.7564 27.6853 36.6264 27.3695 36.3949 27.1366C36.1635 26.9037 35.8496 26.7729 35.5222 26.7729Z" fill="#130F27"/>
<defs>
<filter id="filter0_b_162_1131" x="-32" y="-31.4853" width="214" height="119" filterUnits="userSpaceOnUse" color-interpolation-filters="sRGB">
<feFlood flood-opacity="0" result="BackgroundImageFix"/>
<feGaussianBlur in="BackgroundImageFix" stdDeviation="16"/>
<feComposite in2="SourceAlpha" operator="in" result="effect1_backgroundBlur_162_1131"/>
<feBlend mode="normal" in="SourceGraphic" in2="effect1_backgroundBlur_162_1131" result="shape"/>
</filter>
<filter id="filter1_d_162_1131" x="1" y="4.51471" width="53" height="53" filterUnits="userSpaceOnUse" color-interpolation-filters="sRGB">
<feFlood flood-opacity="0" result="BackgroundImageFix"/>
<feColorMatrix in="SourceAlpha" type="matrix" values="0 0 0 0 0 0 0 0 0 0 0 0 0 0 0 0 0 0 127 0" result="hardAlpha"/>
<feOffset dy="3"/>
<feGaussianBlur stdDeviation="2.5"/>
<feComposite in2="hardAlpha" operator="out"/>
<feColorMatrix type="matrix" values="0 0 0 0 0.654902 0 0 0 0 0.988235 0 0 0 0 0.352941 0 0 0 0.3 0"/>
<feBlend mode="normal" in2="BackgroundImageFix" result="effect1_dropShadow_162_1131"/>
<feBlend mode="normal" in="SourceGraphic" in2="effect1_dropShadow_162_1131" result="shape"/>
</filter>
<linearGradient id="paint0_linear_162_1131" x1="140.954" y1="12.3257" x2="2.201" y2="12.3257" gradientUnits="userSpaceOnUse">
<stop stop-color="#A7FC5A"/>
<stop offset="1" stop-color="#A7FC5A" stop-opacity="0"/>
</linearGradient>
<linearGradient id="paint1_linear_162_1131" x1="75" y1="0.514709" x2="75" y2="55.5147" gradientUnits="userSpaceOnUse">
<stop stop-color="#A7FC5A"/>
<stop offset="1" stop-color="#A7FC5A" stop-opacity="0.22"/>
</linearGradient>
<linearGradient id="paint2_linear_162_1131" x1="27.5" y1="6.51471" x2="27.5" y2="49.5147" gradientUnits="userSpaceOnUse">
<stop stop-color="white"/>
<stop offset="1" stop-color="white" stop-opacity="0"/>
</linearGradient>
</defs>
</svg>
