<svg width="270" height="56" viewBox="0 0 270 56" fill="none" xmlns="http://www.w3.org/2000/svg">
<rect x="25" width="159" height="55" rx="27.5" fill="#151723"/>
<path d="M78.544 12.928V24H77.088V15.744L73.408 24H72.384L68.688 15.728V24H67.232V12.928H68.8L72.896 22.08L76.992 12.928H78.544ZM88.5653 15.232L83.2853 28.128H81.7812L83.5093 23.904L79.9733 15.232H81.5893L84.3413 22.336L87.0613 15.232H88.5653ZM101.159 12.848V14.032H98.1185V24H96.6625V14.032H93.6065V12.848H101.159ZM103.703 13.808C103.425 13.808 103.191 13.712 102.999 13.52C102.807 13.328 102.711 13.0933 102.711 12.816C102.711 12.5387 102.807 12.304 102.999 12.112C103.191 11.92 103.425 11.824 103.703 11.824C103.969 11.824 104.193 11.92 104.375 12.112C104.567 12.304 104.663 12.5387 104.663 12.816C104.663 13.0933 104.567 13.328 104.375 13.52C104.193 13.712 103.969 13.808 103.703 13.808ZM104.407 15.232V24H102.951V15.232H104.407ZM114.888 19.28C114.888 19.5573 114.872 19.8507 114.84 20.16H107.832C107.886 21.024 108.179 21.7013 108.712 22.192C109.256 22.672 109.912 22.912 110.68 22.912C111.31 22.912 111.832 22.768 112.248 22.48C112.675 22.1813 112.974 21.7867 113.144 21.296H114.712C114.478 22.1387 114.008 22.8267 113.304 23.36C112.6 23.8827 111.726 24.144 110.68 24.144C109.848 24.144 109.102 23.9573 108.44 23.584C107.79 23.2107 107.278 22.6827 106.904 22C106.531 21.3067 106.344 20.5067 106.344 19.6C106.344 18.6933 106.526 17.8987 106.888 17.216C107.251 16.5333 107.758 16.0107 108.408 15.648C109.07 15.2747 109.827 15.088 110.68 15.088C111.512 15.088 112.248 15.2693 112.888 15.632C113.528 15.9947 114.019 16.496 114.36 17.136C114.712 17.7653 114.888 18.48 114.888 19.28ZM113.384 18.976C113.384 18.4213 113.262 17.9467 113.016 17.552C112.771 17.1467 112.435 16.8427 112.008 16.64C111.592 16.4267 111.128 16.32 110.616 16.32C109.88 16.32 109.251 16.5547 108.728 17.024C108.216 17.4933 107.923 18.144 107.848 18.976H113.384ZM118.266 16.656C118.522 16.1547 118.885 15.7653 119.354 15.488C119.834 15.2107 120.415 15.072 121.098 15.072V16.576H120.714C119.082 16.576 118.266 17.4613 118.266 19.232V24H116.81V15.232H118.266V16.656Z" fill="white"/>
<path d="M73.44 38.272C74.0693 38.3893 74.5867 38.704 74.992 39.216C75.3973 39.728 75.6 40.3147 75.6 40.976C75.6 41.5733 75.4507 42.1013 75.152 42.56C74.864 43.008 74.4427 43.36 73.888 43.616C73.3333 43.872 72.6773 44 71.92 44H67.104V32.832H71.712C72.4693 32.832 73.12 32.9547 73.664 33.2C74.2187 33.4453 74.6347 33.7867 74.912 34.224C75.2 34.6613 75.344 35.1573 75.344 35.712C75.344 36.3627 75.168 36.9067 74.816 37.344C74.4747 37.7813 74.016 38.0907 73.44 38.272ZM69.344 37.44H71.392C71.9253 37.44 72.336 37.3227 72.624 37.088C72.912 36.8427 73.056 36.496 73.056 36.048C73.056 35.6 72.912 35.2533 72.624 35.008C72.336 34.7627 71.9253 34.64 71.392 34.64H69.344V37.44ZM71.6 42.176C72.144 42.176 72.5653 42.048 72.864 41.792C73.1733 41.536 73.328 41.1733 73.328 40.704C73.328 40.224 73.168 39.8507 72.848 39.584C72.528 39.3067 72.096 39.168 71.552 39.168H69.344V42.176H71.6ZM85.6253 39.376C85.6253 39.696 85.6039 39.984 85.5613 40.24H79.0813C79.1346 40.88 79.3586 41.3813 79.7533 41.744C80.1479 42.1067 80.6333 42.288 81.2093 42.288C82.0413 42.288 82.6333 41.9307 82.9853 41.216H85.4013C85.1453 42.0693 84.6546 42.7733 83.9293 43.328C83.2039 43.872 82.3133 44.144 81.2573 44.144C80.4039 44.144 79.6359 43.9573 78.9533 43.584C78.2813 43.2 77.7533 42.6613 77.3693 41.968C76.9959 41.2747 76.8092 40.4747 76.8092 39.568C76.8092 38.6507 76.9959 37.8453 77.3693 37.152C77.7426 36.4587 78.2653 35.9253 78.9373 35.552C79.6093 35.1787 80.3826 34.992 81.2573 34.992C82.0999 34.992 82.8519 35.1733 83.5133 35.536C84.1853 35.8987 84.7026 36.416 85.0653 37.088C85.4386 37.7493 85.6253 38.512 85.6253 39.376ZM83.3053 38.736C83.2946 38.16 83.0866 37.7013 82.6813 37.36C82.2759 37.008 81.7799 36.832 81.1933 36.832C80.6386 36.832 80.1693 37.0027 79.7853 37.344C79.4119 37.6747 79.1826 38.1387 79.0973 38.736H83.3053ZM86.6842 39.536C86.6842 38.64 86.8602 37.8453 87.2122 37.152C87.5749 36.4587 88.0603 35.9253 88.6683 35.552C89.2869 35.1787 89.9749 34.992 90.7323 34.992C91.3936 34.992 91.9696 35.1253 92.4603 35.392C92.9616 35.6587 93.3616 35.9947 93.6603 36.4V35.136H95.9163V44H93.6603V42.704C93.3723 43.12 92.9723 43.4667 92.4603 43.744C91.9589 44.0107 91.3776 44.144 90.7163 44.144C89.9696 44.144 89.2869 43.952 88.6683 43.568C88.0603 43.184 87.5749 42.6453 87.2122 41.952C86.8602 41.248 86.6842 40.4427 86.6842 39.536ZM93.6603 39.568C93.6603 39.024 93.5536 38.56 93.3403 38.176C93.1269 37.7813 92.8389 37.4827 92.4763 37.28C92.1136 37.0667 91.7243 36.96 91.3083 36.96C90.8923 36.96 90.5083 37.0613 90.1562 37.264C89.8043 37.4667 89.5163 37.7653 89.2923 38.16C89.0789 38.544 88.9723 39.0027 88.9723 39.536C88.9723 40.0693 89.0789 40.5387 89.2923 40.944C89.5163 41.3387 89.8043 41.6427 90.1562 41.856C90.5189 42.0693 90.9029 42.176 91.3083 42.176C91.7243 42.176 92.1136 42.0747 92.4763 41.872C92.8389 41.6587 93.1269 41.36 93.3403 40.976C93.5536 40.5813 93.6603 40.112 93.6603 39.568ZM101.496 44.144C100.771 44.144 100.12 44.016 99.544 43.76C98.968 43.4933 98.5093 43.136 98.168 42.688C97.8373 42.24 97.656 41.744 97.624 41.2H99.88C99.9227 41.5413 100.088 41.824 100.376 42.048C100.675 42.272 101.043 42.384 101.48 42.384C101.907 42.384 102.237 42.2987 102.472 42.128C102.717 41.9573 102.84 41.7387 102.84 41.472C102.84 41.184 102.691 40.9707 102.392 40.832C102.104 40.6827 101.64 40.5227 101 40.352C100.339 40.192 99.7947 40.0267 99.368 39.856C98.952 39.6853 98.5893 39.424 98.28 39.072C97.9813 38.72 97.832 38.2453 97.832 37.648C97.832 37.1573 97.9707 36.7093 98.248 36.304C98.536 35.8987 98.9413 35.5787 99.464 35.344C99.9973 35.1093 100.621 34.992 101.336 34.992C102.392 34.992 103.235 35.2587 103.864 35.792C104.493 36.3147 104.84 37.024 104.904 37.92H102.76C102.728 37.568 102.579 37.2907 102.312 37.088C102.056 36.8747 101.709 36.768 101.272 36.768C100.867 36.768 100.552 36.8427 100.328 36.992C100.115 37.1413 100.008 37.3493 100.008 37.616C100.008 37.9147 100.157 38.144 100.456 38.304C100.755 38.4533 101.219 38.608 101.848 38.768C102.488 38.928 103.016 39.0933 103.432 39.264C103.848 39.4347 104.205 39.7013 104.504 40.064C104.813 40.416 104.973 40.8853 104.984 41.472C104.984 41.984 104.84 42.4427 104.552 42.848C104.275 43.2533 103.869 43.5733 103.336 43.808C102.813 44.032 102.2 44.144 101.496 44.144ZM109.431 36.976V41.264C109.431 41.5627 109.5 41.7813 109.639 41.92C109.788 42.048 110.033 42.112 110.375 42.112H111.415V44H110.007C108.119 44 107.175 43.0827 107.175 41.248V36.976H106.119V35.136H107.175V32.944H109.431V35.136H111.415V36.976H109.431ZM124.034 35.008C125.122 35.008 125.997 35.344 126.658 36.016C127.33 36.6773 127.666 37.6053 127.666 38.8V44H125.426V39.104C125.426 38.4107 125.25 37.8827 124.898 37.52C124.546 37.1467 124.066 36.96 123.458 36.96C122.85 36.96 122.365 37.1467 122.002 37.52C121.65 37.8827 121.474 38.4107 121.474 39.104V44H119.234V39.104C119.234 38.4107 119.058 37.8827 118.706 37.52C118.354 37.1467 117.874 36.96 117.266 36.96C116.647 36.96 116.157 37.1467 115.794 37.52C115.442 37.8827 115.266 38.4107 115.266 39.104V44H113.026V35.136H115.266V36.208C115.554 35.8347 115.922 35.5413 116.37 35.328C116.829 35.1147 117.33 35.008 117.874 35.008C118.567 35.008 119.186 35.1573 119.73 35.456C120.274 35.744 120.695 36.16 120.994 36.704C121.282 36.192 121.698 35.7813 122.242 35.472C122.797 35.1627 123.394 35.008 124.034 35.008ZM133.728 44.144C132.874 44.144 132.106 43.9573 131.424 43.584C130.741 43.2 130.202 42.6613 129.808 41.968C129.424 41.2747 129.232 40.4747 129.232 39.568C129.232 38.6613 129.429 37.8613 129.824 37.168C130.229 36.4747 130.778 35.9413 131.472 35.568C132.165 35.184 132.938 34.992 133.792 34.992C134.645 34.992 135.418 35.184 136.112 35.568C136.805 35.9413 137.349 36.4747 137.744 37.168C138.149 37.8613 138.352 38.6613 138.352 39.568C138.352 40.4747 138.144 41.2747 137.727 41.968C137.322 42.6613 136.768 43.2 136.064 43.584C135.37 43.9573 134.592 44.144 133.728 44.144ZM133.728 42.192C134.133 42.192 134.512 42.096 134.864 41.904C135.226 41.7013 135.514 41.4027 135.728 41.008C135.941 40.6133 136.048 40.1333 136.048 39.568C136.048 38.7253 135.824 38.08 135.376 37.632C134.938 37.1733 134.4 36.944 133.76 36.944C133.12 36.944 132.581 37.1733 132.144 37.632C131.717 38.08 131.504 38.7253 131.504 39.568C131.504 40.4107 131.712 41.0613 132.128 41.52C132.554 41.968 133.088 42.192 133.728 42.192ZM139.419 39.536C139.419 38.64 139.595 37.8453 139.947 37.152C140.309 36.4587 140.8 35.9253 141.419 35.552C142.037 35.1787 142.725 34.992 143.483 34.992C144.059 34.992 144.608 35.12 145.131 35.376C145.653 35.6213 146.069 35.952 146.379 36.368V32.16H148.651V44H146.379V42.688C146.101 43.1253 145.712 43.4773 145.211 43.744C144.709 44.0107 144.128 44.144 143.467 44.144C142.72 44.144 142.037 43.952 141.419 43.568C140.8 43.184 140.309 42.6453 139.947 41.952C139.595 41.248 139.419 40.4427 139.419 39.536ZM146.395 39.568C146.395 39.024 146.288 38.56 146.075 38.176C145.861 37.7813 145.573 37.4827 145.211 37.28C144.848 37.0667 144.459 36.96 144.043 36.96C143.627 36.96 143.243 37.0613 142.891 37.264C142.539 37.4667 142.251 37.7653 142.027 38.16C141.813 38.544 141.707 39.0027 141.707 39.536C141.707 40.0693 141.813 40.5387 142.027 40.944C142.251 41.3387 142.539 41.6427 142.891 41.856C143.253 42.0693 143.637 42.176 144.043 42.176C144.459 42.176 144.848 42.0747 145.211 41.872C145.573 41.6587 145.861 41.36 146.075 40.976C146.288 40.5813 146.395 40.112 146.395 39.568ZM159.078 39.376C159.078 39.696 159.057 39.984 159.014 40.24H152.534C152.588 40.88 152.812 41.3813 153.206 41.744C153.601 42.1067 154.086 42.288 154.662 42.288C155.494 42.288 156.086 41.9307 156.438 41.216H158.854C158.598 42.0693 158.108 42.7733 157.382 43.328C156.657 43.872 155.766 44.144 154.71 44.144C153.857 44.144 153.089 43.9573 152.406 43.584C151.734 43.2 151.206 42.6613 150.822 41.968C150.449 41.2747 150.262 40.4747 150.262 39.568C150.262 38.6507 150.449 37.8453 150.822 37.152C151.196 36.4587 151.718 35.9253 152.39 35.552C153.062 35.1787 153.836 34.992 154.71 34.992C155.553 34.992 156.305 35.1733 156.966 35.536C157.638 35.8987 158.156 36.416 158.518 37.088C158.892 37.7493 159.078 38.512 159.078 39.376ZM156.758 38.736C156.748 38.16 156.54 37.7013 156.134 37.36C155.729 37.008 155.233 36.832 154.646 36.832C154.092 36.832 153.622 37.0027 153.238 37.344C152.865 37.6747 152.636 38.1387 152.55 38.736H156.758Z" fill="#00F9FF"/>
<path d="M162.489 25.0066C164.189 25.0066 165.89 25.0066 167.591 25.0066C167.641 25.0066 167.698 24.9887 167.739 25.0118C167.823 25.0596 167.92 25.1107 167.971 25.1949C168.036 25.3023 167.983 25.4206 167.908 25.5123C167.686 25.7839 167.464 26.0559 167.241 26.3269C165.743 28.1538 164.244 29.9807 162.745 31.8072C162.534 32.065 162.442 32.0645 162.229 31.8043C160.532 29.7362 158.836 27.6675 157.139 25.5989C157.108 25.5606 157.061 25.5279 157.048 25.4825C157.023 25.3879 156.982 25.2706 157.009 25.1921C157.036 25.1131 157.133 25.0582 157.208 25.0156C157.254 24.9901 157.316 25.0066 157.371 25.0066C159.077 25.0066 160.783 25.0066 162.489 25.0066Z" fill="white"/>
<g filter="url(#filter0_f_162_1138)">
<path d="M31.0013 12V18.3145L31.0001 18.3169L27.5486 26.0634L22.9448 23.4806L30.9988 12.0031L31.0001 12.0012L31.0013 12Z" fill="url(#paint0_linear_162_1138)"/>
<path d="M39.0553 23.4806L31.0001 34.816L22.9448 23.4806L27.5486 26.0634L31.0001 31.3705L34.4515 26.0634L39.0553 23.4806Z" fill="#132A47"/>
<path d="M34.4517 26.0634L31.0003 27.9274L27.5488 26.0634L31.0003 18.3169L34.4517 26.0634Z" fill="url(#paint1_radial_162_1138)"/>
<path d="M34.4517 26.0634L31.0003 31.3705L27.5488 26.0634L31.0003 27.9274L34.4517 26.0634Z" fill="url(#paint2_radial_162_1138)"/>
<path d="M21.9346 37.6874L11 27.9532L16.8997 21.184L18.2051 20.7538H18.207L17.9257 21.3323L16.8832 23.4806L16.7333 23.8006L14.741 27.9292L21.9346 37.6874Z" fill="url(#paint3_linear_162_1138)"/>
<path d="M24.2377 16.3052L22.5114 19.032L18.1939 24.6283L14.7412 27.9292L16.7336 23.8006L17.926 21.3323L18.2072 20.7539L20.5584 19.8929L24.2377 16.3052Z" fill="url(#paint4_linear_162_1138)"/>
<path d="M18.2071 20.7538L17.9258 21.3323L18.2051 20.7538H18.2071Z" fill="url(#paint5_linear_162_1138)"/>
<path d="M39.199 34.0997L30.9997 44L22.8003 34.0997L26.8276 35.8215L30.9997 39.408L35.1711 35.8215L39.199 34.0997Z" fill="url(#paint6_radial_162_1138)"/>
<path d="M22.2556 28.216L19.4365 28.3286L25.3 32.3779L22.2556 28.216Z" fill="url(#paint7_linear_162_1138)"/>
<path d="M39.0555 23.4806L34.4517 26.0634L31.0003 18.3169L30.999 18.3145V12L31.0003 12.0012L31.0016 12.0031L39.0555 23.4806Z" fill="url(#paint8_radial_162_1138)"/>
<path d="M40.0654 37.6874L51 27.9532L45.1004 21.184L43.795 20.7538H43.793L44.0743 21.3323L45.1169 23.4806L45.2667 23.8006L47.2591 27.9292L40.0654 37.6874Z" fill="url(#paint9_linear_162_1138)"/>
<path d="M37.7627 16.3052L39.489 19.032L43.8065 24.6283L47.2592 27.9292L45.2668 23.8006L44.0744 21.3323L43.7932 20.7539L41.4421 19.8929L37.7627 16.3052Z" fill="url(#paint10_linear_162_1138)"/>
<path d="M43.793 20.7538L44.0742 21.3323L43.7949 20.7538H43.793Z" fill="url(#paint11_linear_162_1138)"/>
<path d="M39.7442 28.216L42.5632 28.3286L36.6997 32.3779L39.7442 28.216Z" fill="url(#paint12_linear_162_1138)"/>
</g>
<path d="M31.0013 12V18.3145L31.0001 18.3169L27.5486 26.0634L22.9448 23.4806L30.9988 12.0031L31.0001 12.0012L31.0013 12Z" fill="url(#paint13_linear_162_1138)"/>
<path d="M39.0553 23.4806L31.0001 34.816L22.9448 23.4806L27.5486 26.0634L31.0001 31.3705L34.4515 26.0634L39.0553 23.4806Z" fill="#132A47"/>
<path d="M34.4517 26.0634L31.0003 27.9274L27.5488 26.0634L31.0003 18.3169L34.4517 26.0634Z" fill="url(#paint14_radial_162_1138)"/>
<path d="M34.4517 26.0634L31.0003 31.3705L27.5488 26.0634L31.0003 27.9274L34.4517 26.0634Z" fill="url(#paint15_radial_162_1138)"/>
<path d="M21.9346 37.6874L11 27.9532L16.8997 21.184L18.2051 20.7538H18.207L17.9257 21.3323L16.8832 23.4806L16.7333 23.8006L14.741 27.9292L21.9346 37.6874Z" fill="url(#paint16_linear_162_1138)"/>
<path d="M24.2377 16.3052L22.5114 19.032L18.1939 24.6283L14.7412 27.9292L16.7336 23.8006L17.926 21.3323L18.2072 20.7539L20.5584 19.8929L24.2377 16.3052Z" fill="url(#paint17_linear_162_1138)"/>
<path d="M18.2071 20.7538L17.9258 21.3323L18.2051 20.7538H18.2071Z" fill="url(#paint18_linear_162_1138)"/>
<path d="M39.199 34.0997L30.9997 44L22.8003 34.0997L26.8276 35.8215L30.9997 39.408L35.1711 35.8215L39.199 34.0997Z" fill="url(#paint19_radial_162_1138)"/>
<path d="M22.2556 28.216L19.4365 28.3286L25.3 32.3779L22.2556 28.216Z" fill="url(#paint20_linear_162_1138)"/>
<path d="M39.0555 23.4806L34.4517 26.0634L31.0003 18.3169L30.999 18.3145V12L31.0003 12.0012L31.0016 12.0031L39.0555 23.4806Z" fill="url(#paint21_radial_162_1138)"/>
<path d="M40.0654 37.6874L51 27.9532L45.1004 21.184L43.795 20.7538H43.793L44.0743 21.3323L45.1169 23.4806L45.2667 23.8006L47.2591 27.9292L40.0654 37.6874Z" fill="url(#paint22_linear_162_1138)"/>
<path d="M37.7627 16.3052L39.489 19.032L43.8065 24.6283L47.2592 27.9292L45.2668 23.8006L44.0744 21.3323L43.7932 20.7539L41.4421 19.8929L37.7627 16.3052Z" fill="url(#paint23_linear_162_1138)"/>
<path d="M43.793 20.7538L44.0742 21.3323L43.7949 20.7538H43.793Z" fill="url(#paint24_linear_162_1138)"/>
<path d="M39.7442 28.216L42.5632 28.3286L36.6997 32.3779L39.7442 28.216Z" fill="url(#paint25_linear_162_1138)"/>
<path d="M246.091 28.0972L246.092 28.0972L242.478 31.668L238.911 28.0572L238.906 28.0518L238.911 28.0467L242.521 24.4792L246.092 28.0932L246.094 28.0954L246.091 28.0972Z" fill="#F5BC1C"/>
<circle cx="242.5" cy="28.5" r="27" fill="url(#paint26_linear_162_1138)" stroke="url(#paint27_linear_162_1138)"/>
<path d="M236.476 30.4351L242.424 36.4548L248.447 30.5041L251.908 34.0069L242.382 43.4192L232.973 33.8961L236.476 30.4351ZM227.068 27.9201L230.529 31.4229L234.032 27.9619L230.571 24.4591L227.068 27.9201ZM236.506 25.5175L242.525 19.57L248.476 25.5929L251.981 22.1339L251.979 22.1318L242.567 12.6055L233.04 22.0192L236.506 25.5175ZM250.918 28.0619L254.379 31.565L257.882 28.1041L254.421 24.6009L250.918 28.0619Z" fill="#F5BC1C"/>
<defs>
<filter id="filter0_f_162_1138" x="0" y="1" width="62" height="54" filterUnits="userSpaceOnUse" color-interpolation-filters="sRGB">
<feFlood flood-opacity="0" result="BackgroundImageFix"/>
<feBlend mode="normal" in="SourceGraphic" in2="BackgroundImageFix" result="shape"/>
<feGaussianBlur stdDeviation="5.5" result="effect1_foregroundBlur_162_1138"/>
</filter>
<linearGradient id="paint0_linear_162_1138" x1="25.7823" y1="23.9914" x2="30.1367" y2="17.2339" gradientUnits="userSpaceOnUse">
<stop stop-color="#1E4678"/>
<stop offset="0.23" stop-color="#1C4F85"/>
<stop offset="0.51" stop-color="#195D9A"/>
<stop offset="1" stop-color="#1089CE"/>
</linearGradient>
<radialGradient id="paint1_radial_162_1138" cx="0" cy="0" r="1" gradientUnits="userSpaceOnUse" gradientTransform="translate(31.2082 27.1243) scale(7.20405 7.05292)">
<stop stop-color="#17A5DE"/>
<stop offset="0.64" stop-color="#0B66A3"/>
</radialGradient>
<radialGradient id="paint2_radial_162_1138" cx="0" cy="0" r="1" gradientUnits="userSpaceOnUse" gradientTransform="translate(30.9757 28.7483) scale(5.43211 5.31815)">
<stop stop-color="#4EE5FF"/>
<stop offset="0.41" stop-color="#4EE5FF"/>
<stop offset="0.66" stop-color="#41BCE3"/>
</radialGradient>
<linearGradient id="paint3_linear_162_1138" x1="12.8787" y1="20.7458" x2="21.7625" y2="40.53" gradientUnits="userSpaceOnUse">
<stop stop-color="#1088CC"/>
<stop offset="0.65" stop-color="#0C83D2"/>
<stop offset="0.75" stop-color="#0F71BE"/>
<stop offset="0.97" stop-color="#174189"/>
<stop offset="1" stop-color="#183B82"/>
</linearGradient>
<linearGradient id="paint4_linear_162_1138" x1="22.1964" y1="17.0935" x2="16.058" y2="27.0483" gradientUnits="userSpaceOnUse">
<stop stop-color="#1089CE"/>
<stop offset="0.01" stop-color="#148FD1"/>
<stop offset="0.08" stop-color="#26AADF"/>
<stop offset="0.16" stop-color="#35C0EB"/>
<stop offset="0.26" stop-color="#40D1F4"/>
<stop offset="0.38" stop-color="#48DCFA"/>
<stop offset="0.54" stop-color="#4DE3FE"/>
<stop offset="1" stop-color="#4EE5FF"/>
</linearGradient>
<linearGradient id="paint5_linear_162_1138" x1="18.1175" y1="21.1089" x2="17.9383" y2="20.8623" gradientUnits="userSpaceOnUse">
<stop stop-color="#1089CE"/>
<stop offset="0.01" stop-color="#148FD1"/>
<stop offset="0.08" stop-color="#26AADF"/>
<stop offset="0.16" stop-color="#35C0EB"/>
<stop offset="0.26" stop-color="#40D1F4"/>
<stop offset="0.38" stop-color="#48DCFA"/>
<stop offset="0.54" stop-color="#4DE3FE"/>
<stop offset="1" stop-color="#4EE5FF"/>
</linearGradient>
<radialGradient id="paint6_radial_162_1138" cx="0" cy="0" r="1" gradientUnits="userSpaceOnUse" gradientTransform="translate(30.9751 39.1009) scale(10.9246 10.6954)">
<stop stop-color="#00CBFF"/>
<stop offset="0.16" stop-color="#02BEF8"/>
<stop offset="0.41" stop-color="#07A2E9"/>
<stop offset="0.82" stop-color="#164792"/>
</radialGradient>
<linearGradient id="paint7_linear_162_1138" x1="19.4365" y1="30.2966" x2="25.3" y2="30.2966" gradientUnits="userSpaceOnUse">
<stop stop-color="#2AEEFF"/>
<stop offset="0.29" stop-color="#28EBFE"/>
<stop offset="0.53" stop-color="#23E1FC"/>
<stop offset="0.74" stop-color="#1AD0F7"/>
<stop offset="0.93" stop-color="#0EB9F2"/>
<stop offset="1" stop-color="#09AFEF"/>
</linearGradient>
<radialGradient id="paint8_radial_162_1138" cx="0" cy="0" r="1" gradientUnits="userSpaceOnUse" gradientTransform="translate(34.6101 19.3858) scale(11.3155 11.0782)">
<stop stop-color="#00CBFF"/>
<stop offset="0.22" stop-color="#04BEF8"/>
<stop offset="0.41" stop-color="#09AFEF"/>
<stop offset="0.66" stop-color="#1D6DB2"/>
</radialGradient>
<linearGradient id="paint9_linear_162_1138" x1="49.1892" y1="20.6031" x2="40.306" y2="40.3872" gradientUnits="userSpaceOnUse">
<stop stop-color="#1088CC"/>
<stop offset="0.65" stop-color="#0C83D2"/>
<stop offset="0.75" stop-color="#0F71BE"/>
<stop offset="0.97" stop-color="#174189"/>
<stop offset="1" stop-color="#183B82"/>
</linearGradient>
<linearGradient id="paint10_linear_162_1138" x1="39.804" y1="17.0935" x2="45.9424" y2="27.0483" gradientUnits="userSpaceOnUse">
<stop stop-color="#1089CE"/>
<stop offset="0.01" stop-color="#148FD1"/>
<stop offset="0.08" stop-color="#26AADF"/>
<stop offset="0.16" stop-color="#35C0EB"/>
<stop offset="0.26" stop-color="#40D1F4"/>
<stop offset="0.38" stop-color="#48DCFA"/>
<stop offset="0.54" stop-color="#4DE3FE"/>
<stop offset="1" stop-color="#4EE5FF"/>
</linearGradient>
<linearGradient id="paint11_linear_162_1138" x1="43.8825" y1="21.1089" x2="44.0618" y2="20.8623" gradientUnits="userSpaceOnUse">
<stop stop-color="#1089CE"/>
<stop offset="0.01" stop-color="#148FD1"/>
<stop offset="0.08" stop-color="#26AADF"/>
<stop offset="0.16" stop-color="#35C0EB"/>
<stop offset="0.26" stop-color="#40D1F4"/>
<stop offset="0.38" stop-color="#48DCFA"/>
<stop offset="0.54" stop-color="#4DE3FE"/>
<stop offset="1" stop-color="#4EE5FF"/>
</linearGradient>
<linearGradient id="paint12_linear_162_1138" x1="42.5638" y1="30.2966" x2="36.6997" y2="30.2966" gradientUnits="userSpaceOnUse">
<stop stop-color="#2AEEFF"/>
<stop offset="0.29" stop-color="#28EBFE"/>
<stop offset="0.53" stop-color="#23E1FC"/>
<stop offset="0.74" stop-color="#1AD0F7"/>
<stop offset="0.93" stop-color="#0EB9F2"/>
<stop offset="1" stop-color="#09AFEF"/>
</linearGradient>
<linearGradient id="paint13_linear_162_1138" x1="25.7823" y1="23.9914" x2="30.1367" y2="17.2339" gradientUnits="userSpaceOnUse">
<stop stop-color="#1E4678"/>
<stop offset="0.23" stop-color="#1C4F85"/>
<stop offset="0.51" stop-color="#195D9A"/>
<stop offset="1" stop-color="#1089CE"/>
</linearGradient>
<radialGradient id="paint14_radial_162_1138" cx="0" cy="0" r="1" gradientUnits="userSpaceOnUse" gradientTransform="translate(31.2082 27.1243) scale(7.20405 7.05292)">
<stop stop-color="#17A5DE"/>
<stop offset="0.64" stop-color="#0B66A3"/>
</radialGradient>
<radialGradient id="paint15_radial_162_1138" cx="0" cy="0" r="1" gradientUnits="userSpaceOnUse" gradientTransform="translate(30.9757 28.7483) scale(5.43211 5.31815)">
<stop stop-color="#4EE5FF"/>
<stop offset="0.41" stop-color="#4EE5FF"/>
<stop offset="0.66" stop-color="#41BCE3"/>
</radialGradient>
<linearGradient id="paint16_linear_162_1138" x1="12.8787" y1="20.7458" x2="21.7625" y2="40.53" gradientUnits="userSpaceOnUse">
<stop stop-color="#1088CC"/>
<stop offset="0.65" stop-color="#0C83D2"/>
<stop offset="0.75" stop-color="#0F71BE"/>
<stop offset="0.97" stop-color="#174189"/>
<stop offset="1" stop-color="#183B82"/>
</linearGradient>
<linearGradient id="paint17_linear_162_1138" x1="22.1964" y1="17.0935" x2="16.058" y2="27.0483" gradientUnits="userSpaceOnUse">
<stop stop-color="#1089CE"/>
<stop offset="0.01" stop-color="#148FD1"/>
<stop offset="0.08" stop-color="#26AADF"/>
<stop offset="0.16" stop-color="#35C0EB"/>
<stop offset="0.26" stop-color="#40D1F4"/>
<stop offset="0.38" stop-color="#48DCFA"/>
<stop offset="0.54" stop-color="#4DE3FE"/>
<stop offset="1" stop-color="#4EE5FF"/>
</linearGradient>
<linearGradient id="paint18_linear_162_1138" x1="18.1175" y1="21.1089" x2="17.9383" y2="20.8623" gradientUnits="userSpaceOnUse">
<stop stop-color="#1089CE"/>
<stop offset="0.01" stop-color="#148FD1"/>
<stop offset="0.08" stop-color="#26AADF"/>
<stop offset="0.16" stop-color="#35C0EB"/>
<stop offset="0.26" stop-color="#40D1F4"/>
<stop offset="0.38" stop-color="#48DCFA"/>
<stop offset="0.54" stop-color="#4DE3FE"/>
<stop offset="1" stop-color="#4EE5FF"/>
</linearGradient>
<radialGradient id="paint19_radial_162_1138" cx="0" cy="0" r="1" gradientUnits="userSpaceOnUse" gradientTransform="translate(30.9751 39.1009) scale(10.9246 10.6954)">
<stop stop-color="#00CBFF"/>
<stop offset="0.16" stop-color="#02BEF8"/>
<stop offset="0.41" stop-color="#07A2E9"/>
<stop offset="0.82" stop-color="#164792"/>
</radialGradient>
<linearGradient id="paint20_linear_162_1138" x1="19.4365" y1="30.2966" x2="25.3" y2="30.2966" gradientUnits="userSpaceOnUse">
<stop stop-color="#2AEEFF"/>
<stop offset="0.29" stop-color="#28EBFE"/>
<stop offset="0.53" stop-color="#23E1FC"/>
<stop offset="0.74" stop-color="#1AD0F7"/>
<stop offset="0.93" stop-color="#0EB9F2"/>
<stop offset="1" stop-color="#09AFEF"/>
</linearGradient>
<radialGradient id="paint21_radial_162_1138" cx="0" cy="0" r="1" gradientUnits="userSpaceOnUse" gradientTransform="translate(34.6101 19.3858) scale(11.3155 11.0782)">
<stop stop-color="#00CBFF"/>
<stop offset="0.22" stop-color="#04BEF8"/>
<stop offset="0.41" stop-color="#09AFEF"/>
<stop offset="0.66" stop-color="#1D6DB2"/>
</radialGradient>
<linearGradient id="paint22_linear_162_1138" x1="49.1892" y1="20.6031" x2="40.306" y2="40.3872" gradientUnits="userSpaceOnUse">
<stop stop-color="#1088CC"/>
<stop offset="0.65" stop-color="#0C83D2"/>
<stop offset="0.75" stop-color="#0F71BE"/>
<stop offset="0.97" stop-color="#174189"/>
<stop offset="1" stop-color="#183B82"/>
</linearGradient>
<linearGradient id="paint23_linear_162_1138" x1="39.804" y1="17.0935" x2="45.9424" y2="27.0483" gradientUnits="userSpaceOnUse">
<stop stop-color="#1089CE"/>
<stop offset="0.01" stop-color="#148FD1"/>
<stop offset="0.08" stop-color="#26AADF"/>
<stop offset="0.16" stop-color="#35C0EB"/>
<stop offset="0.26" stop-color="#40D1F4"/>
<stop offset="0.38" stop-color="#48DCFA"/>
<stop offset="0.54" stop-color="#4DE3FE"/>
<stop offset="1" stop-color="#4EE5FF"/>
</linearGradient>
<linearGradient id="paint24_linear_162_1138" x1="43.8825" y1="21.1089" x2="44.0618" y2="20.8623" gradientUnits="userSpaceOnUse">
<stop stop-color="#1089CE"/>
<stop offset="0.01" stop-color="#148FD1"/>
<stop offset="0.08" stop-color="#26AADF"/>
<stop offset="0.16" stop-color="#35C0EB"/>
<stop offset="0.26" stop-color="#40D1F4"/>
<stop offset="0.38" stop-color="#48DCFA"/>
<stop offset="0.54" stop-color="#4DE3FE"/>
<stop offset="1" stop-color="#4EE5FF"/>
</linearGradient>
<linearGradient id="paint25_linear_162_1138" x1="42.5638" y1="30.2966" x2="36.6997" y2="30.2966" gradientUnits="userSpaceOnUse">
<stop stop-color="#2AEEFF"/>
<stop offset="0.29" stop-color="#28EBFE"/>
<stop offset="0.53" stop-color="#23E1FC"/>
<stop offset="0.74" stop-color="#1AD0F7"/>
<stop offset="0.93" stop-color="#0EB9F2"/>
<stop offset="1" stop-color="#09AFEF"/>
</linearGradient>
<linearGradient id="paint26_linear_162_1138" x1="242.5" y1="1" x2="242.5" y2="56" gradientUnits="userSpaceOnUse">
<stop stop-color="#F5BC1C" stop-opacity="0.32"/>
<stop offset="1" stop-color="#F5BC1C" stop-opacity="0"/>
</linearGradient>
<linearGradient id="paint27_linear_162_1138" x1="242.5" y1="1" x2="242.5" y2="56" gradientUnits="userSpaceOnUse">
<stop stop-color="#FFAF00"/>
<stop offset="1" stop-color="#FFAF00" stop-opacity="0.22"/>
</linearGradient>
</defs>
</svg>
