<svg width="160" height="58" viewBox="0 0 160 58" fill="none" xmlns="http://www.w3.org/2000/svg">
<g filter="url(#filter0_b_162_1123)">
<rect y="0.514709" width="160" height="55" rx="27.5" fill="url(#paint0_linear_162_1123)" fill-opacity="0.2"/>
<rect x="0.5" y="1.01471" width="159" height="54" rx="27" stroke="url(#paint1_linear_162_1123)"/>
</g>
<g filter="url(#filter1_d_162_1123)">
<circle cx="27.5" cy="28.0147" r="21.5" fill="#A7FC5A"/>
<circle cx="27.5" cy="28.0147" r="21" stroke="url(#paint2_linear_162_1123)" stroke-opacity="0.5"/>
</g>
<path d="M58.2252 27.718C58.2252 26.494 58.5012 25.396 59.0532 24.424C59.6052 23.44 60.3552 22.672 61.3032 22.12C62.2632 21.568 63.3252 21.292 64.4892 21.292C65.8572 21.292 67.0512 21.622 68.0712 22.282C69.0912 22.942 69.8352 23.878 70.3032 25.09H68.3412C67.9932 24.334 67.4892 23.752 66.8292 23.344C66.1812 22.936 65.4012 22.732 64.4892 22.732C63.6132 22.732 62.8272 22.936 62.1312 23.344C61.4352 23.752 60.8892 24.334 60.4932 25.09C60.0972 25.834 59.8992 26.71 59.8992 27.718C59.8992 28.714 60.0972 29.59 60.4932 30.346C60.8892 31.09 61.4352 31.666 62.1312 32.074C62.8272 32.482 63.6132 32.686 64.4892 32.686C65.4012 32.686 66.1812 32.488 66.8292 32.092C67.4892 31.684 67.9932 31.102 68.3412 30.346H70.3032C69.8352 31.546 69.0912 32.476 68.0712 33.136C67.0512 33.784 65.8572 34.108 64.4892 34.108C63.3252 34.108 62.2632 33.838 61.3032 33.298C60.3552 32.746 59.6052 31.984 59.0532 31.012C58.5012 30.04 58.2252 28.942 58.2252 27.718ZM77.0435 34.162C76.1195 34.162 75.2795 33.952 74.5235 33.532C73.7795 33.112 73.1915 32.518 72.7595 31.75C72.3395 30.97 72.1295 30.07 72.1295 29.05C72.1295 28.042 72.3455 27.154 72.7775 26.386C73.2215 25.606 73.8215 25.012 74.5775 24.604C75.3335 24.184 76.1795 23.974 77.1155 23.974C78.0515 23.974 78.8975 24.184 79.6535 24.604C80.4095 25.012 81.0035 25.6 81.4355 26.368C81.8795 27.136 82.1015 28.03 82.1015 29.05C82.1015 30.07 81.8735 30.97 81.4175 31.75C80.9735 32.518 80.3675 33.112 79.5995 33.532C78.8315 33.952 77.9795 34.162 77.0435 34.162ZM77.0435 32.722C77.6315 32.722 78.1835 32.584 78.6995 32.308C79.2155 32.032 79.6295 31.618 79.9415 31.066C80.2655 30.514 80.4275 29.842 80.4275 29.05C80.4275 28.258 80.2715 27.586 79.9595 27.034C79.6475 26.482 79.2395 26.074 78.7355 25.81C78.2315 25.534 77.6855 25.396 77.0975 25.396C76.4975 25.396 75.9455 25.534 75.4415 25.81C74.9495 26.074 74.5535 26.482 74.2535 27.034C73.9535 27.586 73.8035 28.258 73.8035 29.05C73.8035 29.854 73.9475 30.532 74.2355 31.084C74.5355 31.636 74.9315 32.05 75.4235 32.326C75.9155 32.59 76.4555 32.722 77.0435 32.722ZM89.0611 23.956C90.2611 23.956 91.2331 24.322 91.9771 25.054C92.7211 25.774 93.0931 26.818 93.0931 28.186V34H91.4731V28.42C91.4731 27.436 91.2271 26.686 90.7351 26.17C90.2431 25.642 89.5711 25.378 88.7191 25.378C87.8551 25.378 87.1651 25.648 86.6491 26.188C86.1451 26.728 85.8931 27.514 85.8931 28.546V34H84.2551V24.136H85.8931V25.54C86.2171 25.036 86.6551 24.646 87.2071 24.37C87.7711 24.094 88.3891 23.956 89.0611 23.956ZM100.575 23.956C101.775 23.956 102.747 24.322 103.491 25.054C104.235 25.774 104.607 26.818 104.607 28.186V34H102.987V28.42C102.987 27.436 102.741 26.686 102.249 26.17C101.757 25.642 101.085 25.378 100.233 25.378C99.3688 25.378 98.6788 25.648 98.1628 26.188C97.6588 26.728 97.4068 27.514 97.4068 28.546V34H95.7688V24.136H97.4068V25.54C97.7308 25.036 98.1688 24.646 98.7208 24.37C99.2848 24.094 99.9028 23.956 100.575 23.956ZM116.282 28.69C116.282 29.002 116.264 29.332 116.228 29.68H108.344C108.404 30.652 108.734 31.414 109.334 31.966C109.946 32.506 110.684 32.776 111.548 32.776C112.256 32.776 112.844 32.614 113.312 32.29C113.792 31.954 114.128 31.51 114.32 30.958H116.084C115.82 31.906 115.292 32.68 114.5 33.28C113.708 33.868 112.724 34.162 111.548 34.162C110.612 34.162 109.772 33.952 109.028 33.532C108.296 33.112 107.72 32.518 107.3 31.75C106.88 30.97 106.67 30.07 106.67 29.05C106.67 28.03 106.874 27.136 107.282 26.368C107.69 25.6 108.26 25.012 108.992 24.604C109.736 24.184 110.588 23.974 111.548 23.974C112.484 23.974 113.312 24.178 114.032 24.586C114.752 24.994 115.304 25.558 115.688 26.278C116.084 26.986 116.282 27.79 116.282 28.69ZM114.59 28.348C114.59 27.724 114.452 27.19 114.176 26.746C113.9 26.29 113.522 25.948 113.042 25.72C112.574 25.48 112.052 25.36 111.476 25.36C110.648 25.36 109.94 25.624 109.352 26.152C108.776 26.68 108.446 27.412 108.362 28.348H114.59ZM117.833 29.05C117.833 28.03 118.037 27.142 118.445 26.386C118.853 25.618 119.417 25.024 120.137 24.604C120.869 24.184 121.703 23.974 122.639 23.974C123.851 23.974 124.847 24.268 125.627 24.856C126.419 25.444 126.941 26.26 127.193 27.304H125.429C125.261 26.704 124.931 26.23 124.439 25.882C123.959 25.534 123.359 25.36 122.639 25.36C121.703 25.36 120.947 25.684 120.371 26.332C119.795 26.968 119.507 27.874 119.507 29.05C119.507 30.238 119.795 31.156 120.371 31.804C120.947 32.452 121.703 32.776 122.639 32.776C123.359 32.776 123.959 32.608 124.439 32.272C124.919 31.936 125.249 31.456 125.429 30.832H127.193C126.929 31.84 126.401 32.65 125.609 33.262C124.817 33.862 123.827 34.162 122.639 34.162C121.703 34.162 120.869 33.952 120.137 33.532C119.417 33.112 118.853 32.518 118.445 31.75C118.037 30.982 117.833 30.082 117.833 29.05ZM131.376 25.486V31.3C131.376 31.78 131.478 32.122 131.682 32.326C131.886 32.518 132.24 32.614 132.744 32.614H133.95V34H132.474C131.562 34 130.878 33.79 130.422 33.37C129.966 32.95 129.738 32.26 129.738 31.3V25.486H128.46V24.136H129.738V21.652H131.376V24.136H133.95V25.486H131.376Z" fill="white"/>
<path d="M38 34.0147V35.8897C38 36.924 37.1585 37.7647 36.125 37.7647H20C18.3455 37.7647 17 36.4192 17 34.7647V22.0147C17 20.3602 18.3455 19.0147 20 19.0147H33.875C34.0227 19.0147 34.169 19.0438 34.3055 19.1003C34.442 19.1569 34.566 19.2397 34.6705 19.3442C34.775 19.4487 34.8578 19.5727 34.9144 19.7092C34.9709 19.8457 35 19.992 35 20.1397C35 20.2874 34.9709 20.4337 34.9144 20.5702C34.8578 20.7067 34.775 20.8307 34.6705 20.9352C34.566 21.0397 34.442 21.1225 34.3055 21.1791C34.169 21.2356 34.0227 21.2647 33.875 21.2647H20C19.8069 21.2733 19.6246 21.3561 19.491 21.4958C19.3574 21.6356 19.2828 21.8214 19.2828 22.0147C19.2828 22.208 19.3574 22.3939 19.491 22.5336C19.6246 22.6733 19.8069 22.7561 20 22.7647H36.125C37.1585 22.7647 38 23.6055 38 24.6397V26.5147H34.25C32.1823 26.5147 30.5 28.197 30.5 30.2647C30.5 32.3325 32.1823 34.0147 34.25 34.0147H38Z" fill="#130F27"/>
<path d="M38 28.0147V32.5147H34.25C33.6533 32.5147 33.081 32.2777 32.659 31.8557C32.2371 31.4337 32 30.8614 32 30.2647C32 29.668 32.2371 29.0957 32.659 28.6737C33.081 28.2518 33.6533 28.0147 34.25 28.0147H38Z" fill="#130F27"/>
<defs>
<filter id="filter0_b_162_1123" x="-32" y="-31.4853" width="224" height="119" filterUnits="userSpaceOnUse" color-interpolation-filters="sRGB">
<feFlood flood-opacity="0" result="BackgroundImageFix"/>
<feGaussianBlur in="BackgroundImageFix" stdDeviation="16"/>
<feComposite in2="SourceAlpha" operator="in" result="effect1_backgroundBlur_162_1123"/>
<feBlend mode="normal" in="SourceGraphic" in2="effect1_backgroundBlur_162_1123" result="shape"/>
</filter>
<filter id="filter1_d_162_1123" x="1" y="4.51471" width="53" height="53" filterUnits="userSpaceOnUse" color-interpolation-filters="sRGB">
<feFlood flood-opacity="0" result="BackgroundImageFix"/>
<feColorMatrix in="SourceAlpha" type="matrix" values="0 0 0 0 0 0 0 0 0 0 0 0 0 0 0 0 0 0 127 0" result="hardAlpha"/>
<feOffset dy="3"/>
<feGaussianBlur stdDeviation="2.5"/>
<feComposite in2="hardAlpha" operator="out"/>
<feColorMatrix type="matrix" values="0 0 0 0 0.654902 0 0 0 0 0.988235 0 0 0 0 0.352941 0 0 0 0.3 0"/>
<feBlend mode="normal" in2="BackgroundImageFix" result="effect1_dropShadow_162_1123"/>
<feBlend mode="normal" in="SourceGraphic" in2="effect1_dropShadow_162_1123" result="shape"/>
</filter>
<linearGradient id="paint0_linear_162_1123" x1="160" y1="32.6586" x2="1.85477e-07" y2="32.6586" gradientUnits="userSpaceOnUse">
<stop stop-color="#A7FC5A"/>
<stop offset="1" stop-color="#A7FC5A" stop-opacity="0"/>
</linearGradient>
<linearGradient id="paint1_linear_162_1123" x1="80" y1="0.514709" x2="80" y2="55.5147" gradientUnits="userSpaceOnUse">
<stop stop-color="#A7FC5A"/>
<stop offset="1" stop-color="#A7FC5A" stop-opacity="0.22"/>
</linearGradient>
<linearGradient id="paint2_linear_162_1123" x1="27.5" y1="6.51471" x2="27.5" y2="49.5147" gradientUnits="userSpaceOnUse">
<stop stop-color="white"/>
<stop offset="1" stop-color="white" stop-opacity="0"/>
</linearGradient>
</defs>
</svg>
