<svg width="229" height="69" viewBox="0 0 229 69" fill="none" xmlns="http://www.w3.org/2000/svg">
<g filter="url(#filter0_dii_162_106)">
<rect x="4.49902" y="0.316895" width="220" height="60" rx="30" fill="#A7FC5A"/>
</g>
<mask id="mask0_162_106" style="mask-type:alpha" maskUnits="userSpaceOnUse" x="4" y="0" width="221" height="58">
<rect x="4.49902" y="0.316895" width="220" height="56.9935" rx="28.4968" fill="#A7FC5A"/>
</mask>
<g mask="url(#mask0_162_106)">
<g filter="url(#filter1_f_162_106)">
<rect x="184.008" y="89.6901" width="70.3886" height="96.4775" rx="7" transform="rotate(-150 184.008 89.6901)" fill="url(#paint0_linear_162_106)" fill-opacity="0.7"/>
</g>
<g filter="url(#filter2_f_162_106)">
<rect x="38.9307" y="81.3184" width="33.913" height="80.013" rx="7" transform="rotate(-150 38.9307 81.3184)" fill="url(#paint1_linear_162_106)" fill-opacity="0.7"/>
</g>
</g>
<path d="M80.4822 30.3169C80.4822 28.9436 80.7889 27.7169 81.4022 26.6369C82.0289 25.5436 82.8756 24.6969 83.9422 24.0969C85.0222 23.4836 86.2289 23.1769 87.5622 23.1769C89.1222 23.1769 90.4889 23.5769 91.6622 24.3769C92.8356 25.1769 93.6556 26.2836 94.1222 27.6969H90.9022C90.5822 27.0302 90.1289 26.5302 89.5422 26.1969C88.9689 25.8636 88.3022 25.6969 87.5422 25.6969C86.7289 25.6969 86.0022 25.8902 85.3622 26.2769C84.7356 26.6502 84.2422 27.1836 83.8822 27.8769C83.5356 28.5702 83.3622 29.3836 83.3622 30.3169C83.3622 31.2369 83.5356 32.0502 83.8822 32.7569C84.2422 33.4502 84.7356 33.9902 85.3622 34.3769C86.0022 34.7502 86.7289 34.9369 87.5422 34.9369C88.3022 34.9369 88.9689 34.7702 89.5422 34.4369C90.1289 34.0902 90.5822 33.5836 90.9022 32.9169H94.1222C93.6556 34.3436 92.8356 35.4569 91.6622 36.2569C90.5022 37.0436 89.1356 37.4369 87.5622 37.4369C86.2289 37.4369 85.0222 37.1369 83.9422 36.5369C82.8756 35.9236 82.0289 35.0769 81.4022 33.9969C80.7889 32.9169 80.4822 31.6902 80.4822 30.3169ZM99.3138 27.9569C99.6738 27.3702 100.14 26.9102 100.714 26.5769C101.3 26.2436 101.967 26.0769 102.714 26.0769V29.0169H101.974C101.094 29.0169 100.427 29.2236 99.9738 29.6369C99.5338 30.0502 99.3138 30.7702 99.3138 31.7969V37.3169H96.5138V26.2369H99.3138V27.9569ZM114.9 31.5369C114.9 31.9369 114.873 32.2969 114.82 32.6169H106.72C106.786 33.4169 107.066 34.0436 107.56 34.4969C108.053 34.9502 108.66 35.1769 109.38 35.1769C110.42 35.1769 111.16 34.7302 111.6 33.8369H114.62C114.3 34.9036 113.686 35.7836 112.78 36.4769C111.873 37.1569 110.76 37.4969 109.44 37.4969C108.373 37.4969 107.413 37.2636 106.56 36.7969C105.72 36.3169 105.06 35.6436 104.58 34.7769C104.113 33.9102 103.88 32.9102 103.88 31.7769C103.88 30.6302 104.113 29.6236 104.58 28.7569C105.046 27.8902 105.7 27.2236 106.54 26.7569C107.38 26.2902 108.346 26.0569 109.44 26.0569C110.493 26.0569 111.433 26.2836 112.26 26.7369C113.1 27.1902 113.746 27.8369 114.2 28.6769C114.666 29.5036 114.9 30.4569 114.9 31.5369ZM112 30.7369C111.986 30.0169 111.726 29.4436 111.22 29.0169C110.713 28.5769 110.093 28.3569 109.36 28.3569C108.666 28.3569 108.08 28.5702 107.6 28.9969C107.133 29.4102 106.846 29.9902 106.74 30.7369H112ZM116.223 31.7369C116.223 30.6169 116.443 29.6236 116.883 28.7569C117.337 27.8902 117.943 27.2236 118.703 26.7569C119.477 26.2902 120.337 26.0569 121.283 26.0569C122.11 26.0569 122.83 26.2236 123.443 26.5569C124.07 26.8902 124.57 27.3102 124.943 27.8169V26.2369H127.763V37.3169H124.943V35.6969C124.583 36.2169 124.083 36.6502 123.443 36.9969C122.817 37.3302 122.09 37.4969 121.263 37.4969C120.33 37.4969 119.477 37.2569 118.703 36.7769C117.943 36.2969 117.337 35.6236 116.883 34.7569C116.443 33.8769 116.223 32.8702 116.223 31.7369ZM124.943 31.7769C124.943 31.0969 124.81 30.5169 124.543 30.0369C124.277 29.5436 123.917 29.1702 123.463 28.9169C123.01 28.6502 122.523 28.5169 122.003 28.5169C121.483 28.5169 121.003 28.6436 120.563 28.8969C120.123 29.1502 119.763 29.5236 119.483 30.0169C119.217 30.4969 119.083 31.0702 119.083 31.7369C119.083 32.4036 119.217 32.9902 119.483 33.4969C119.763 33.9902 120.123 34.3702 120.563 34.6369C121.017 34.9036 121.497 35.0369 122.003 35.0369C122.523 35.0369 123.01 34.9102 123.463 34.6569C123.917 34.3902 124.277 34.0169 124.543 33.5369C124.81 33.0436 124.943 32.4569 124.943 31.7769ZM133.758 28.5369V33.8969C133.758 34.2702 133.845 34.5436 134.018 34.7169C134.205 34.8769 134.511 34.9569 134.938 34.9569H136.238V37.3169H134.478C132.118 37.3169 130.938 36.1702 130.938 33.8769V28.5369H129.618V26.2369H130.938V23.4969H133.758V26.2369H136.238V28.5369H133.758ZM148.552 31.5369C148.552 31.9369 148.525 32.2969 148.472 32.6169H140.372C140.439 33.4169 140.719 34.0436 141.212 34.4969C141.705 34.9502 142.312 35.1769 143.032 35.1769C144.072 35.1769 144.812 34.7302 145.252 33.8369H148.272C147.952 34.9036 147.339 35.7836 146.432 36.4769C145.525 37.1569 144.412 37.4969 143.092 37.4969C142.025 37.4969 141.065 37.2636 140.212 36.7969C139.372 36.3169 138.712 35.6436 138.232 34.7769C137.765 33.9102 137.532 32.9102 137.532 31.7769C137.532 30.6302 137.765 29.6236 138.232 28.7569C138.699 27.8902 139.352 27.2236 140.192 26.7569C141.032 26.2902 141.999 26.0569 143.092 26.0569C144.145 26.0569 145.085 26.2836 145.912 26.7369C146.752 27.1902 147.399 27.8369 147.852 28.6769C148.319 29.5036 148.552 30.4569 148.552 31.5369ZM145.652 30.7369C145.639 30.0169 145.379 29.4436 144.872 29.0169C144.365 28.5769 143.745 28.3569 143.012 28.3569C142.319 28.3569 141.732 28.5702 141.252 28.9969C140.785 29.4102 140.499 29.9902 140.392 30.7369H145.652Z" fill="#06071B"/>
<defs>
<filter id="filter0_dii_162_106" x="0.499023" y="-1.68311" width="228" height="70" filterUnits="userSpaceOnUse" color-interpolation-filters="sRGB">
<feFlood flood-opacity="0" result="BackgroundImageFix"/>
<feColorMatrix in="SourceAlpha" type="matrix" values="0 0 0 0 0 0 0 0 0 0 0 0 0 0 0 0 0 0 127 0" result="hardAlpha"/>
<feOffset dy="4"/>
<feGaussianBlur stdDeviation="2"/>
<feComposite in2="hardAlpha" operator="out"/>
<feColorMatrix type="matrix" values="0 0 0 0 0 0 0 0 0 0 0 0 0 0 0 0 0 0 0.25 0"/>
<feBlend mode="normal" in2="BackgroundImageFix" result="effect1_dropShadow_162_106"/>
<feBlend mode="normal" in="SourceGraphic" in2="effect1_dropShadow_162_106" result="shape"/>
<feColorMatrix in="SourceAlpha" type="matrix" values="0 0 0 0 0 0 0 0 0 0 0 0 0 0 0 0 0 0 127 0" result="hardAlpha"/>
<feOffset dy="2"/>
<feGaussianBlur stdDeviation="1"/>
<feComposite in2="hardAlpha" operator="arithmetic" k2="-1" k3="1"/>
<feColorMatrix type="matrix" values="0 0 0 0 1 0 0 0 0 1 0 0 0 0 1 0 0 0 0.38 0"/>
<feBlend mode="normal" in2="shape" result="effect2_innerShadow_162_106"/>
<feColorMatrix in="SourceAlpha" type="matrix" values="0 0 0 0 0 0 0 0 0 0 0 0 0 0 0 0 0 0 127 0" result="hardAlpha"/>
<feOffset dy="-2"/>
<feGaussianBlur stdDeviation="1.5"/>
<feComposite in2="hardAlpha" operator="arithmetic" k2="-1" k3="1"/>
<feColorMatrix type="matrix" values="0 0 0 0 0.311285 0 0 0 0 0.470833 0 0 0 0 0.166753 0 0 0 1 0"/>
<feBlend mode="normal" in2="effect2_innerShadow_162_106" result="effect3_innerShadow_162_106"/>
</filter>
<filter id="filter1_f_162_106" x="121.611" y="-30.4952" width="112.075" height="121.624" filterUnits="userSpaceOnUse" color-interpolation-filters="sRGB">
<feFlood flood-opacity="0" result="BackgroundImageFix"/>
<feBlend mode="normal" in="SourceGraphic" in2="BackgroundImageFix" result="shape"/>
<feGaussianBlur stdDeviation="2" result="effect1_foregroundBlur_162_106"/>
</filter>
<filter id="filter2_f_162_106" x="8.12207" y="-6.37048" width="72.2542" height="89.1278" filterUnits="userSpaceOnUse" color-interpolation-filters="sRGB">
<feFlood flood-opacity="0" result="BackgroundImageFix"/>
<feBlend mode="normal" in="SourceGraphic" in2="BackgroundImageFix" result="shape"/>
<feGaussianBlur stdDeviation="2" result="effect1_foregroundBlur_162_106"/>
</filter>
<linearGradient id="paint0_linear_162_106" x1="219.202" y1="89.6901" x2="219.202" y2="186.168" gradientUnits="userSpaceOnUse">
<stop stop-color="white"/>
<stop offset="1" stop-color="white" stop-opacity="0"/>
</linearGradient>
<linearGradient id="paint1_linear_162_106" x1="55.8872" y1="81.3184" x2="55.8872" y2="161.331" gradientUnits="userSpaceOnUse">
<stop stop-color="white"/>
<stop offset="1" stop-color="white" stop-opacity="0"/>
</linearGradient>
</defs>
</svg>
