<svg width="55" height="51" viewBox="0 0 55 51" fill="none" xmlns="http://www.w3.org/2000/svg">
<path d="M40.5072 0.395386C34.1078 12.2164 30.5721 18.1113 27.0072 18.1113C23.4422 18.1113 19.9065 12.2164 13.5364 0.395386C19.9065 12.2164 22.9455 18.4544 21.163 21.7294C19.3805 25.0043 12.8059 25.3474 0.036377 25.3474C13.2734 25.3474 19.8481 25.6905 21.3383 29.3085C22.7409 32.6771 19.702 38.8839 13.5364 50.2994C19.9357 38.4784 23.4714 32.5835 27.0364 32.5835C30.6013 32.5835 34.137 38.4784 40.5364 50.2994C33.7572 37.7299 30.7766 31.4918 33.2896 28.3728C35.5104 25.6281 42.0559 25.3474 54.0364 25.3474C40.5364 25.3474 33.9617 24.9731 32.6468 21.1368C31.4487 17.7059 34.4877 11.5302 40.5072 0.395386Z" fill="white"/>
</svg>
